<svg xmlns="http://www.w3.org/2000/svg" width="16" height="16" viewBox="0 0 16 16"><defs><style>.a{fill:#fff;}</style></defs><path class="a" d="M11,3A8.135,8.135,0,0,0,9.063,19,1.143,1.143,0,0,1,9,18.606V17.217H7.995a1.389,1.389,0,0,1-1.271-.682c-.26-.495-.307-1.249-.956-1.711-.193-.153-.047-.328.174-.3a2.087,2.087,0,0,1,1.07.825,1.024,1.024,0,0,0,1.065.521,7.375,7.375,0,0,0,1.128-.082,2.549,2.549,0,0,1,1.057-1.328C7.6,14.178,6.328,12.832,6.328,11a3.355,3.355,0,0,1,.891-2.19c-.182-.635-.414-1.934.07-2.428a2.77,2.77,0,0,1,2.1,1,5.956,5.956,0,0,1,3.891,0,2.767,2.767,0,0,1,2.1-1.005c.487.495.253,1.8.068,2.433A3.349,3.349,0,0,1,16.331,11c0,1.825-1.271,3.171-3.93,3.452a2.859,2.859,0,0,1,1.266,2.3v1.852a1.233,1.233,0,0,1-.023.182A8.14,8.14,0,0,0,11,3Zm0,0" transform="translate(-3 -3)"/></svg>