<svg xmlns="http://www.w3.org/2000/svg" width="16" height="16" viewBox="0 0 16 16"><defs><style>.a{fill:#5354ed;}</style></defs><g transform="translate(-16 16) rotate(-90)"><path class="a" d="M14.1,0H1.9A1.9,1.9,0,0,0,0,1.9V14.1A1.9,1.9,0,0,0,1.9,16H14.1A1.9,1.9,0,0,0,16,14.1V1.9A1.9,1.9,0,0,0,14.1,0ZM4.952,6.1v7.238H2.667V6.1ZM2.667,3.988a1.015,1.015,0,0,1,1.143-.94,1.031,1.031,0,0,1,1.143.94,1.014,1.014,0,0,1-1.143.964A1.031,1.031,0,0,1,2.667,3.988Zm10.667,9.345H11.048V9.524A1.369,1.369,0,0,0,9.714,7.985h-.03c-.923,0-1.3.784-1.3,1.539v3.81H6.1V6.1H8.381V7.07A2.853,2.853,0,0,1,10.594,6.1c1.513,0,2.74,1.04,2.74,3.147Zm0,0" transform="translate(16 16) rotate(90)"/></g></svg>