<svg xmlns="http://www.w3.org/2000/svg" width="49" height="38" viewBox="0 0 49 38">
  <g id="Union_1" data-name="Union 1" transform="translate(2 2)" fill="#fff" stroke-linecap="round" stroke-linejoin="round">
    <path d="M 22.49992942810059 35.72503280639648 L 21.68519020080566 34.57992935180664 L 17.21424293518066 28.29610061645508 L 13.6476001739502 28.29610061645508 C 9.734959602355957 28.29610061645508 6.056600093841553 26.7724609375 3.290110111236572 24.00584030151367 C 0.5235900282859802 21.23919105529785 -1 17.56056022644043 -1 13.64760112762451 C -1 9.735020637512207 0.5235999822616577 6.056661128997803 3.290129899978638 3.290131092071533 C 6.056660175323486 0.5236011147499084 9.735019683837891 -0.999998927116394 13.6476001739502 -0.999998927116394 L 31.3523998260498 -0.999998927116394 C 35.26498031616211 -0.999998927116394 38.94334030151367 0.5236011147499084 41.70986938476563 3.290131092071533 C 44.47639846801758 6.056661128997803 46 9.735020637512207 46 13.64760112762451 C 46 17.56056022644043 44.47640991210938 21.23919105529785 41.70988845825195 24.00584030151367 C 38.94340133666992 26.7724609375 35.26504135131836 28.29610061645508 31.3523998260498 28.29610061645508 L 27.78649711608887 28.29610061645508 L 23.31476020812988 34.58000183105469 L 22.49992942810059 35.72503280639648 Z" stroke="none"/>
    <path d="M 22.5 34.00020217895508 L 27.27075958251953 27.29610061645508 L 31.3523998260498 27.29610061645508 C 38.88990020751953 27.29610061645508 45 21.18600082397461 45 13.64760112762451 C 45 6.110101222991943 38.88990020751953 1.089477564164554e-06 31.3523998260498 1.089477564164554e-06 L 13.6476001739502 1.089477564164554e-06 C 6.110099792480469 1.089477564164554e-06 -3.552713678800501e-15 6.110101222991943 -3.552713678800501e-15 13.64760112762451 C -3.552713678800501e-15 21.18600082397461 6.110099792480469 27.29610061645508 13.6476001739502 27.29610061645508 L 17.73003005981445 27.29610061645508 L 22.5 34.00020217895508 M 22.50001335144043 36.00020217895508 C 22.49997329711914 36.00020217895508 22.49995994567871 36.00020217895508 22.49991989135742 36.00020217895508 C 21.85273933410645 36.00017166137695 21.24558067321777 35.68699264526367 20.87038993835449 35.15967178344727 L 16.69845771789551 29.29610061645508 L 13.6476001739502 29.29610061645508 C 9.467849731445313 29.29610061645508 5.538360118865967 27.66843032836914 2.582989931106567 24.71293067932129 C -0.3723999857902527 21.75741195678711 -2 17.82767105102539 -2 13.64760112762451 C -2 9.467910766601563 -0.3723799884319305 5.538431167602539 2.583019971847534 2.58302116394043 C 5.538430213928223 -0.3723789155483246 9.467909812927246 -1.999998927116394 13.6476001739502 -1.999998927116394 L 31.3523998260498 -1.999998927116394 C 35.53208923339844 -1.999998927116394 39.46157073974609 -0.3723789155483246 42.4169807434082 2.58302116394043 C 45.37237930297852 5.538431167602539 47 9.467910766601563 47 13.64760112762451 C 47 17.82767105102539 45.37239837646484 21.75741195678711 42.41701126098633 24.71293067932129 C 39.46163940429688 27.66843032836914 35.53215026855469 29.29610061645508 31.3523998260498 29.29610061645508 L 28.30223655700684 29.29610061645508 L 24.12952041625977 35.1598014831543 C 23.75431251525879 35.68705749511719 23.14714813232422 36.00020217895508 22.50001335144043 36.00020217895508 Z" stroke="none" fill="#5354ed"/>
  </g>
</svg>
