<svg xmlns="http://www.w3.org/2000/svg" xmlns:xlink="http://www.w3.org/1999/xlink" width="54" height="58" viewBox="0 0 54 58">
  <defs>
    <filter id="Union_1" x="0" y="0" width="54" height="58" filterUnits="userSpaceOnUse">
      <feOffset dy="3" input="SourceAlpha"/>
      <feGaussianBlur stdDeviation="3" result="blur"/>
      <feFlood flood-opacity="0.051"/>
      <feComposite operator="in" in2="blur"/>
      <feComposite in="SourceGraphic"/>
    </filter>
  </defs>
  <g id="Groupe_152" data-name="Groupe 152" transform="translate(11 8)">
    <g id="Groupe_147" data-name="Groupe 147" transform="translate(0 0)">
      <g id="Groupe_26" data-name="Groupe 26" transform="translate(32 36) rotate(180)">
        <g transform="matrix(-1, 0, 0, -1, 43, 44)" filter="url(#Union_1)">
          <g id="Union_1-2" data-name="Union 1" transform="translate(43 44) rotate(180)" fill="#fff" stroke-linecap="round" stroke-linejoin="round">
            <path d="M 16.00029945373535 38.31929016113281 L 15.09794998168945 36.43120956420898 L 11.87506866455078 29.68769454956055 C 8.401120185852051 29.10362243652344 5.220335960388184 27.33832550048828 2.869400024414063 24.67797088623047 C 0.3741801381111145 21.85434913635254 -0.9999998807907104 18.22212982177734 -0.9999998807907104 14.45040035247803 C -0.9999998807907104 10.32365989685059 0.607180118560791 6.443779945373535 3.525480031967163 3.525480031967163 C 6.443779945373535 0.6071799993515015 10.32365989685059 -1 14.45040035247803 -1 L 17.54910087585449 -1 C 21.67617988586426 -1 25.55619049072266 0.6071900129318237 28.4743709564209 3.525500059127808 C 31.3924503326416 6.443689823150635 32.9995002746582 10.32357025146484 32.9995002746582 14.45040035247803 C 32.9995002746582 18.22220039367676 31.62541961669922 21.85441017150879 29.13038063049316 24.67795944213867 C 26.77952003479004 27.33833312988281 23.59871482849121 29.10363578796387 20.12458801269531 29.68769836425781 L 16.90249061584473 36.43112945556641 L 16.00029945373535 38.31929016113281 Z" stroke="none"/>
            <path d="M 16.00020027160645 36 L 19.45116996765137 28.7775707244873 C 26.53302001953125 27.84613990783691 31.9995002746582 21.78663063049316 31.9995002746582 14.45040035247803 C 31.9995002746582 6.470099925994873 25.53030014038086 0 17.54910087585449 0 L 14.45040035247803 0 C 6.470099925994873 0 1.373290956507844e-07 6.470099925994873 1.373290956507844e-07 14.45040035247803 C 1.373290956507844e-07 21.78663063049316 5.467150211334229 27.84613037109375 12.54843044281006 28.77755928039551 L 16.00020027160645 36 M 16.00028991699219 38 C 15.22986030578613 38.00003051757813 14.52791023254395 37.55754089355469 14.1956901550293 36.86241149902344 L 11.19240951538086 30.57838249206543 C 7.695113182067871 29.87396621704102 4.505802154541016 28.03988647460938 2.120060205459595 25.34015083312988 C -0.5367998480796814 22.33362007141113 -1.99999988079071 18.46623039245605 -1.99999988079071 14.45040035247803 C -1.99999988079071 12.23058986663818 -1.564749836921692 10.07606983184814 -0.7063498497009277 8.046689987182617 C 0.1223301365971565 6.087590217590332 1.308220148086548 4.328529834747314 2.81837010383606 2.81837010383606 C 4.328530311584473 1.308220028877258 6.087590217590332 0.1223300024867058 8.046689987182617 -0.7063500285148621 C 10.07606983184814 -1.564749956130981 12.23058986663818 -2 14.45040035247803 -2 L 17.54910087585449 -2 C 19.76910972595215 -2 21.92374992370605 -1.564749956130981 23.95317077636719 -0.7063500285148621 C 25.91230964660645 0.1223199963569641 27.6713809967041 1.308220028877258 29.18148994445801 2.818399906158447 C 30.69157028198242 4.328549861907959 31.87738990783691 6.087619781494141 32.70600128173828 8.046759605407715 C 33.56430053710938 10.07608985900879 33.9995002746582 12.23058986663818 33.9995002746582 14.45040035247803 C 33.9995002746582 18.46628952026367 32.53641128540039 22.33366966247559 29.87973976135254 25.34012985229492 C 27.49406242370605 28.03990173339844 24.30475616455078 29.87397956848145 20.80729103088379 30.57838439941406 L 17.80478096008301 36.86225128173828 C 17.47262954711914 37.55739974975586 16.77071952819824 37.99996948242188 16.00028991699219 38 Z" stroke="none" fill="#5354ed"/>
          </g>
        </g>
      </g>
      <g id="Groupe_27" data-name="Groupe 27" transform="translate(10 7.456)">
        <line id="Ligne_7" data-name="Ligne 7" y2="15" transform="translate(6.115 9.709)" fill="none" stroke="#5354ed" stroke-linecap="square" stroke-width="2"/>
        <path id="Polygone_2" data-name="Polygone 2" d="M6,0l6,12H0Z" fill="#5354ed"/>
      </g>
    </g>
  </g>
</svg>
