<svg xmlns="http://www.w3.org/2000/svg" xmlns:xlink="http://www.w3.org/1999/xlink" width="92" height="100" viewBox="0 0 92 100">
  <defs>
    <filter id="Union_1" x="0" y="0" width="92" height="100" filterUnits="userSpaceOnUse">
      <feOffset dy="3" input="SourceAlpha"/>
      <feGaussianBlur stdDeviation="3" result="blur"/>
      <feFlood flood-opacity="0.051"/>
      <feComposite operator="in" in2="blur"/>
      <feComposite in="SourceGraphic"/>
    </filter>
  </defs>
  <g id="Groupe_28" data-name="Groupe 28" transform="translate(14 11)">
    <g id="Groupe_26" data-name="Groupe 26" transform="translate(64 72) rotate(180)">
      <g transform="matrix(-1, 0, 0, -1, 78, 83)" filter="url(#Union_1)">
        <g id="Union_1-2" data-name="Union 1" transform="translate(78 83) rotate(180)" fill="#fff" stroke-linecap="round" stroke-linejoin="round">
          <path d="M 32.00053787231445 77.79849243164063 L 29.74472808837891 73.07791900634766 L 23.41081809997559 59.82340621948242 C 16.4498291015625 58.59334945678711 10.08373928070068 55.02763366699219 5.363894939422607 49.68685531616211 C 2.88170599937439 46.87812042236328 0.9415948390960693 43.68853378295898 -0.402571827173233 40.20668792724609 C -1.794316291809082 36.60160064697266 -2.499994039535522 32.79804611206055 -2.499994039535522 28.90169906616211 C -2.499994039535522 24.66348838806152 -1.669416308403015 20.55078887939453 -0.03133847936987877 16.67781066894531 C 1.550339341163635 12.93819999694824 3.814150333404541 9.580222129821777 6.697183609008789 6.697177886962891 C 9.580227851867676 3.814144372940063 12.93820571899414 1.550333380699158 16.67781639099121 -0.03134444355964661 C 20.55079460144043 -1.669422268867493 24.66349411010742 -2.5 28.90170669555664 -2.5 L 35.09820556640625 -2.5 C 39.33641815185547 -2.5 43.44911575317383 -1.669422268867493 47.32209396362305 -0.03134444355964661 C 51.06170654296875 1.550333380699158 54.41968536376953 3.814144372940063 57.30272674560547 6.697177886962891 C 60.18576049804688 9.580222129821777 62.4495735168457 12.93819999694824 64.03125 16.67781066894531 C 65.66932678222656 20.55078887939453 66.49990844726563 24.66348838806152 66.49990844726563 28.90169906616211 C 66.49990844726563 32.79804611206055 65.79424285888672 36.60158920288086 64.40250396728516 40.2066764831543 C 63.058349609375 43.68852233886719 61.11824035644531 46.87811279296875 58.63607406616211 49.68684387207031 C 53.9162483215332 55.02762222290039 47.55025482177734 58.59332656860352 40.58927154541016 59.82337951660156 L 34.25613784790039 73.07781219482422 L 32.00053787231445 77.79849243164063 Z" stroke="none"/>
          <path d="M 32.00040817260742 72 L 38.90273666381836 57.55429840087891 C 53.06656646728516 55.69155883789063 63.99990844726563 43.57334136962891 63.99990844726563 28.90169906616211 C 63.99990844726563 12.93929958343506 51.06060791015625 0 35.09820938110352 0 L 28.90170669555664 0 C 12.93930721282959 0 7.551792805315927e-06 12.93929958343506 7.551792805315927e-06 28.90169906616211 C 7.551792805315927e-06 43.57334136962891 10.93343639373779 55.69158554077148 25.0972785949707 57.55431365966797 L 32.00040817260742 72 M 32.00052261352539 77 C 30.07440757751465 77.00004577636719 28.31952095031738 75.89371490478516 27.48904991149902 74.15583038330078 L 21.69618797302246 62.03351593017578 C 14.68090152740479 60.51167678833008 8.294952392578125 56.77879333496094 3.490578889846802 51.34237289428711 C -1.984649538993835 45.14682769775391 -4.999992370605469 37.17724227905273 -4.999992370605469 28.90169906616211 C -4.999992370605469 24.32710075378418 -4.102978229522705 19.88674354553223 -2.333863973617554 15.70395755767822 C -0.6261352896690369 11.66632843017578 1.817579030990601 8.041256904602051 4.929421901702881 4.92941427230835 C 8.041264533996582 1.817571401596069 11.66633605957031 -0.6261428594589233 15.70396423339844 -2.333871364593506 C 19.88675117492676 -4.102985858917236 24.32710838317871 -5 28.90170669555664 -5 L 35.09820938110352 -5 C 39.67280578613281 -5 44.11316299438477 -4.102985858917236 48.29595184326172 -2.333871364593506 C 52.33358001708984 -0.6261428594589233 55.95864868164063 1.817571401596069 59.07049179077148 4.92941427230835 C 62.18233489990234 8.041256904602051 64.62605285644531 11.66632843017578 66.33377838134766 15.70395755767822 C 68.10289001464844 19.88674354553223 68.99990844726563 24.32710075378418 68.99990844726563 28.90169906616211 C 68.99990844726563 37.17724227905273 65.98458099365234 45.14681243896484 60.50938034057617 51.34235763549805 C 55.70503234863281 56.77877807617188 49.31925964355469 60.51161956787109 42.30397796630859 62.03346633911133 L 36.51186370849609 74.15563201904297 C 35.68146514892578 75.89353942871094 33.9266357421875 76.99995422363281 32.00052261352539 77 Z" stroke="none" fill="#5354ed"/>
        </g>
      </g>
    </g>
    <g id="Groupe_27" data-name="Groupe 27" transform="translate(24 28)">
      <line id="Ligne_7" data-name="Ligne 7" y2="20.288" transform="translate(8.115 7.709)" fill="none" stroke="#5354ed" stroke-linecap="square" stroke-width="4"/>
      <path id="Polygone_2" data-name="Polygone 2" d="M8,0l8,15H0Z" fill="#5354ed"/>
    </g>
  </g>
</svg>
